# xmcd
#
# Track frame offsets:
#	183
#	12165
#	35615
#	54970
#	78865
#	99598
#	120928
#	133835
#	145665
#	166963
#	187803
#	203758
#	214153
#	232940
#	253293
#	277093
#	289510
#	305758
#	324665
#
# Disc length: 4566 seconds
#
# Revision: 3
# Processed by: cddbd v1.5.2PL0 Copyright (c) Steve Scherf et al.
# Submitted via: Antz MP3Processor 1.0.0
#
DISCID=0a11d413
DTITLE=Joe Cocker - In the Studio
DYEAR=1991
DGENRE=Blues
TTITLE0=Marjorine
TTITLE1=With A Little Help From My Friends
TTITLE2=Feeling Alright
TTITLE3=Just Like A Woman
TTITLE4=I Shall Be Released
TTITLE5=Don't Let Me Be Misunderstood
TTITLE6=Delta Lady
TTITLE7=She Came in Through the Bathroom Window
TTITLE8=Darling Be Home Soon
TTITLE9=Hitchcock Railway
TTITLE10=Something
TTITLE11=Lawdy Miss Clawdy
TTITLE12=The Letter
TTITLE13=High Time We Went
TTITLE14=Something to Say
TTITLE15=You Are So Beautiful
TTITLE16=I Can Stand A Little Rain
TTITLE17=Jamaica Say You Will
TTITLE18=I Think It's Going to Rain Today
EXTD=
EXTT0=
EXTT1=
EXTT2=
EXTT3=
EXTT4=
EXTT5=
EXTT6=
EXTT7=
EXTT8=
EXTT9=
EXTT10=
EXTT11=
EXTT12=
EXTT13=
EXTT14=
EXTT15=
EXTT16=
EXTT17=
EXTT18=
PLAYORDER=
